# xmcd
#
# Track frame offsets: 
#        150
#        23335
#        42382
#        52367
#        73290
#        89941
#        112982
#        144603
#        160301
#        179148
#        203851
#        225408
#        238976
#        267469
#        303160
#
# Disc length: 4442 seconds
#
# Revision: 3
# Processed by: cddbd v1.5.2PL0 Copyright (c) Steve Scherf et al.
# Submitted via: ExactAudioCopy v0.95b2
#
DISCID=e511580f
DTITLE=Nomeansno - The People's Choice
DYEAR=2004
DGENRE=Punk
TTITLE0=Now
TTITLE1=Sex Mad
TTITLE2=Theresa, Give Me That Knife
TTITLE3=Body Bag
TTITLE4=Angel and Devil
TTITLE5=Rags 'n Bones
TTITLE6=I Need You
TTITLE7=It's Catching Up
TTITLE8=Humans
TTITLE9=I Can't Stop Talking
TTITLE10=The Day Everything Became Nothing (live)
TTITLE11=Dad
TTITLE12=The River
TTITLE13=Victory
TTITLE14=Give Me the Push
EXTD=
EXTT0=
EXTT1=
EXTT2=
EXTT3=
EXTT4=
EXTT5=
EXTT6=
EXTT7=
EXTT8=
EXTT9=
EXTT10=
EXTT11=
EXTT12=
EXTT13=
EXTT14=
PLAYORDER=
